<svg width="20" height="20" viewBox="0 0 20 20" fill="none" xmlns="http://www.w3.org/2000/svg">
<g clip-path="url(#clip0_676_20129)">
<path d="M14.3154 10.0571L13.3059 9.04762L8.65826 13.6952L6.63921 11.6762L5.62969 12.6857L8.65826 15.7143L14.3154 10.0571ZM16.6678 2.38095H15.7154V0.476189H13.8106V2.38095H6.19159V0.476189H4.28683V2.38095H3.33445C2.28207 2.38095 1.43921 3.23333 1.43921 4.28571L1.42969 17.619C1.42969 18.6714 2.28207 19.5238 3.33445 19.5238H16.6678C17.7202 19.5238 18.5725 18.6714 18.5725 17.619V4.28571C18.5725 3.23333 17.7202 2.38095 16.6678 2.38095ZM16.6678 17.619H3.33445V7.14286H16.6678V17.619Z" fill="#DEBB2A"/>
</g>
<defs>
<clipPath id="clip0_676_20129">
<rect width="20" height="20" fill="white"/>
</clipPath>
</defs>
</svg>
