<svg width="18" height="18" viewBox="0 0 18 18" fill="none" xmlns="http://www.w3.org/2000/svg">
<path d="M17.4375 6.22876V15.5625C17.437 16.0596 17.2393 16.5363 16.8878 16.8878C16.5363 17.2393 16.0596 17.437 15.5625 17.4375H12.4375C12.106 17.4375 11.788 17.3058 11.5536 17.0714C11.3192 16.837 11.1875 16.519 11.1875 16.1875V12.75C11.1875 12.5842 11.1217 12.4253 11.0044 12.3081C10.8872 12.1909 10.7283 12.125 10.5625 12.125H7.4375C7.27174 12.125 7.11277 12.1909 6.99556 12.3081C6.87835 12.4253 6.8125 12.5842 6.8125 12.75V16.1875C6.8125 16.519 6.6808 16.837 6.44638 17.0714C6.21196 17.3058 5.89402 17.4375 5.5625 17.4375H2.4375C1.94037 17.437 1.46375 17.2393 1.11222 16.8878C0.7607 16.5363 0.562996 16.0596 0.5625 15.5625V6.22876C0.562968 6.01291 0.619058 5.80082 0.725359 5.61296C0.83166 5.4251 0.984583 5.26781 1.16937 5.15626L8.35687 0.843758C8.55118 0.727134 8.77354 0.665527 9.00016 0.665527C9.22678 0.665527 9.44913 0.727134 9.64344 0.843758L16.8309 5.15626C17.0157 5.26785 17.1685 5.42516 17.2748 5.61301C17.381 5.80087 17.4371 6.01294 17.4375 6.22876Z" fill="#02ADC8"/>
</svg>
