<svg width="16" height="20" viewBox="0 0 16 20" fill="none" xmlns="http://www.w3.org/2000/svg">
<path fill-rule="evenodd" clip-rule="evenodd" d="M10.7808 17.8053C13.0905 15.0009 16 10.9266 16 8.19662C16 3.66975 12.4183 0 8 0C3.58172 0 0 3.66975 0 8.19662C0 10.9266 2.90945 15.0009 5.21921 17.8053C6.42425 19.2684 7.02677 20 8 20C8.97323 20 9.57575 19.2684 10.7808 17.8053ZM8 11.4256C6.34315 11.4256 5 10.1467 5 8.56919C5 6.99165 6.34315 5.7128 8 5.7128C9.65685 5.7128 11 6.99165 11 8.56919C11 10.1467 9.65685 11.4256 8 11.4256Z" fill="#2EA0B9"/>
</svg>
