<svg width="70" height="70" viewBox="0 0 70 70" fill="none" xmlns="http://www.w3.org/2000/svg">
<path d="M13.125 19.6875V21.875C13.125 24.1916 14.3336 26.2259 16.1514 27.3941C15.6155 28.0427 14.8291 28.4375 13.9606 28.4375H13.8009C11.0163 28.4375 8.75 30.7027 8.75 33.4884V39.375C8.75 39.9798 9.24 40.4688 9.84375 40.4688H29.5312C30.135 40.4688 30.625 39.9798 30.625 39.375V36.0938H39.375V39.375C39.375 39.9798 39.865 40.4688 40.4688 40.4688H60.1562C60.76 40.4688 61.25 39.9798 61.25 39.375V33.4884C61.25 30.7027 58.9837 28.4375 56.1991 28.4375H56.0394C55.1709 28.4375 54.3856 28.0427 53.8497 27.3941C55.6664 26.2259 56.875 24.1916 56.875 21.875V19.6875C56.875 16.0683 53.9317 13.125 50.3125 13.125C46.6933 13.125 43.75 16.0683 43.75 19.6875V21.875C43.75 24.1916 44.9586 26.2259 46.7764 27.3941C46.4483 27.7911 46.025 28.0831 45.5438 28.2538C44.7781 26.4359 42.9789 25.1563 40.8866 25.1563H40.7269C39.8584 25.1563 39.0731 24.7614 38.5372 24.1128C40.3539 22.9447 41.5625 20.9103 41.5625 18.5938V16.4063C41.5625 12.787 38.6192 9.84375 35 9.84375C31.3808 9.84375 28.4375 12.787 28.4375 16.4063V18.5938C28.4375 20.9103 29.6461 22.9447 31.4639 24.1128C30.928 24.7614 30.1416 25.1563 29.2731 25.1563H29.1134C27.02 25.1563 25.2219 26.4359 24.4563 28.2548C23.975 28.0842 23.5517 27.7922 23.2236 27.3952C25.0414 26.2259 26.25 24.1916 26.25 21.875V19.6875C26.25 16.0683 23.3067 13.125 19.6875 13.125C16.0683 13.125 13.125 16.0683 13.125 19.6875ZM28.4375 38.2813H10.9375V33.4884C10.9375 31.9102 12.2216 30.625 13.8009 30.625H13.9606C14.2417 30.625 14.5163 30.5955 14.7864 30.5517L15.1802 30.9455C16.3833 32.1497 17.9845 32.8125 19.6875 32.8125C21.3303 32.8125 22.8747 32.1902 24.0625 31.0658V35C24.0625 35.6048 24.5525 36.0938 25.1562 36.0938H28.4375V38.2813ZM56.1991 30.625C57.7784 30.625 59.0625 31.9102 59.0625 33.4884V38.2813H41.5625V36.0938H44.8438C45.4475 36.0938 45.9375 35.6048 45.9375 35V31.0658C47.1253 32.1902 48.6697 32.8125 50.3125 32.8125C52.0155 32.8125 53.6167 32.1497 54.8198 30.9455L55.2136 30.5517C55.4837 30.5955 55.7583 30.625 56.0394 30.625H56.1991ZM45.9375 19.6875C45.9375 17.2747 47.8997 15.3125 50.3125 15.3125C52.7253 15.3125 54.6875 17.2747 54.6875 19.6875V21.875C54.6875 24.2878 52.7253 26.25 50.3125 26.25C47.8997 26.25 45.9375 24.2878 45.9375 21.875V19.6875ZM50.3125 28.4375C50.8167 28.4375 51.3056 28.3752 51.7781 28.2669C52.1106 28.7952 52.5284 29.2458 53.0119 29.61C51.4883 30.8864 49.1356 30.8864 47.6131 29.61C48.0966 29.2458 48.5155 28.7952 48.8469 28.2669C49.3194 28.3752 49.8083 28.4375 50.3125 28.4375ZM30.625 16.4063C30.625 13.9934 32.5872 12.0313 35 12.0313C37.4128 12.0313 39.375 13.9934 39.375 16.4063V18.5938C39.375 21.0066 37.4128 22.9688 35 22.9688C32.5872 22.9688 30.625 21.0066 30.625 18.5938V16.4063ZM35 25.1563C35.5042 25.1563 35.9931 25.0939 36.4656 24.9856C36.7981 25.5139 37.2159 25.9645 37.6994 26.3288C36.1758 27.6052 33.8231 27.6052 32.3006 26.3288C32.7841 25.9645 33.203 25.5139 33.5344 24.9856C34.0069 25.0939 34.4958 25.1563 35 25.1563ZM26.25 30.2072C26.25 28.6289 27.5341 27.3438 29.1134 27.3438H29.2731C29.5542 27.3438 29.8287 27.3142 30.0989 27.2705L30.4927 27.6642C31.6958 28.8684 33.297 29.5313 35 29.5313C36.703 29.5313 38.3042 28.8684 39.5073 27.6642L39.9011 27.2705C40.1712 27.3142 40.4458 27.3438 40.7269 27.3438H40.8866C42.4659 27.3438 43.75 28.6289 43.75 30.2072V33.9063H26.25V30.2072ZM22.3869 29.6089C20.8633 30.8853 18.5106 30.8853 16.9881 29.6089C17.4716 29.2447 17.8905 28.7941 18.2219 28.2658C18.6944 28.3752 19.1833 28.4375 19.6875 28.4375C20.1917 28.4375 20.6806 28.3752 21.1531 28.2669C21.4845 28.7952 21.9034 29.2458 22.3869 29.6089ZM24.0625 19.6875V21.875C24.0625 24.2878 22.1003 26.25 19.6875 26.25C17.2747 26.25 15.3125 24.2878 15.3125 21.875V19.6875C15.3125 17.2747 17.2747 15.3125 19.6875 15.3125C22.1003 15.3125 24.0625 17.2747 24.0625 19.6875Z" fill="#02ADC8"/>
<path d="M62.0091 47.3802L39.5992 53.492C39.4439 53.2547 39.2634 53.0283 39.0545 52.8194L31.3983 45.1631C31.1938 44.9586 30.9148 44.8437 30.625 44.8437H18.5938V43.75C18.5938 43.1452 18.1038 42.6562 17.5 42.6562H10.9375H2.1875C1.58375 42.6562 1.09375 43.1452 1.09375 43.75V67.8125C1.09375 68.4173 1.58375 68.9062 2.1875 68.9062H10.9375C11.5413 68.9062 12.0312 68.4173 12.0312 67.8125V66.7187H17.5C18.1038 66.7187 18.5938 66.2298 18.5938 65.625V64.5312H26.0728L32.4669 66.6619C32.5795 66.6991 32.6955 66.7187 32.8125 66.7187C32.9328 66.7187 33.0531 66.698 33.168 66.6586L68.168 54.6273C68.6098 54.4764 68.9062 54.0608 68.9062 53.5937V52.5C68.9062 51.4587 68.612 50.4448 68.0542 49.5666C66.8303 47.6438 64.3431 46.7447 62.0091 47.3802ZM9.84375 66.7187H3.28125V44.8437H9.84375V66.7187ZM16.4062 64.5312H12.0312V44.8437H16.4062V64.5312ZM66.7188 52.8128L32.807 64.47L26.5956 62.3995C26.4841 62.3634 26.367 62.3437 26.25 62.3437H18.5938V47.0312H30.1722L37.508 54.367C38.2878 55.1469 38.2878 56.4156 37.508 57.1955C36.7281 57.9753 35.4594 57.9753 34.6795 57.1955L29.2108 51.7267L27.6642 53.2733L33.133 58.742C33.9489 59.558 35.0219 59.9659 36.0938 59.9659C37.1656 59.9659 38.2386 59.558 39.0545 58.742C39.9219 57.8747 40.3145 56.7186 40.2598 55.58L62.5844 49.4911C64.0041 49.1028 65.4948 49.6169 66.208 50.7412C66.5427 51.2662 66.7188 51.8755 66.7188 52.5V52.8128Z" fill="#02ADC8"/>
<path d="M45.0205 2.59882C44.3117 2.38116 43.5942 2.18429 42.8669 2.01147L42.3594 4.13882C43.0408 4.30069 43.7123 4.48444 44.3752 4.69007L45.0205 2.59882Z" fill="#02ADC8"/>
<path d="M66.7185 35.0001C66.7185 35.4923 66.7075 35.9834 66.6846 36.4701L68.8699 36.5707C68.8939 36.0501 68.906 35.5262 68.906 35.0001C68.906 34.7792 68.9038 34.5582 68.8994 34.3384L66.7119 34.381C66.7163 34.5878 66.7185 34.7945 66.7185 35.0001Z" fill="#02ADC8"/>
<path d="M40.6798 1.56739C39.959 1.44599 39.2153 1.34536 38.4671 1.2688L38.2451 3.44536C38.9418 3.51536 39.632 3.60833 40.3145 3.72536L40.6798 1.56739Z" fill="#02ADC8"/>
<path d="M65.982 28.1662L68.118 27.6959C67.9584 26.9697 67.7735 26.2423 67.5679 25.5325L65.4668 26.1417C65.6593 26.8089 65.831 27.4837 65.982 28.1662Z" fill="#02ADC8"/>
<path d="M49.1962 4.199C48.518 3.88619 47.8246 3.59416 47.1355 3.33057L46.3535 5.3726C47.0065 5.62307 47.6485 5.89432 48.2796 6.18525L49.1962 4.199Z" fill="#02ADC8"/>
<path d="M66.6054 32.2941L68.7852 32.1082C68.7218 31.3622 68.6343 30.6239 68.5238 29.8922L66.3604 30.2192C66.4654 30.9039 66.5463 31.5963 66.6054 32.2941Z" fill="#02ADC8"/>
<path d="M60.9658 16.7804L62.7552 15.5226C62.3275 14.9133 61.8791 14.3183 61.4132 13.7397L59.708 15.1113C60.1455 15.6538 60.5655 16.2094 60.9658 16.7804Z" fill="#02ADC8"/>
<path d="M64.8176 24.1577L66.8738 23.4096C66.619 22.7096 66.339 22.014 66.0426 21.3402L64.041 22.2229C64.3199 22.8572 64.5791 23.5026 64.8176 24.1577Z" fill="#02ADC8"/>
<path d="M59.9564 12.0477C59.4587 11.5063 58.9315 10.9704 58.3912 10.4552L56.8818 12.0379C57.385 12.518 57.8739 13.0146 58.3453 13.5275L59.9564 12.0477Z" fill="#02ADC8"/>
<path d="M53.1192 6.33613C52.4958 5.94128 51.8472 5.55957 51.192 5.203L50.1475 7.12582C50.76 7.45941 51.3604 7.8116 51.9478 8.18456L53.1192 6.33613Z" fill="#02ADC8"/>
<path d="M65.2168 44.6743L67.3004 45.3403C67.5279 44.6294 67.7324 43.9053 67.9096 43.19L65.7866 42.665C65.6182 43.3443 65.4279 44.0136 65.2168 44.6743Z" fill="#02ADC8"/>
<path d="M68.6967 38.7964L66.5223 38.5547C66.4447 39.2503 66.3441 39.9394 66.2227 40.6208L68.3762 41.008C68.5064 40.2795 68.6136 39.5358 68.6967 38.7964Z" fill="#02ADC8"/>
<path d="M56.7261 8.96774C56.1552 8.49196 55.5624 8.02821 54.9663 7.5929L53.6768 9.3593C54.24 9.77055 54.7891 10.2004 55.3229 10.6466L56.7261 8.96774Z" fill="#02ADC8"/>
<path d="M63.1353 20.3437L65.0745 19.3309C64.7322 18.6758 64.3636 18.0228 63.9775 17.3895L62.1094 18.5259C62.4714 19.1187 62.8137 19.7258 63.1353 20.3437Z" fill="#02ADC8"/>
<path d="M4.60078 25.9164L2.50406 25.2908C2.29188 26.005 2.10047 26.7312 1.9375 27.452L4.07031 27.9366C4.22563 27.2541 4.40281 26.5814 4.60078 25.9164Z" fill="#02ADC8"/>
<path d="M6.0575 22.0041L4.06359 21.1072C3.76063 21.7787 3.47516 22.4755 3.21484 23.1755L5.26453 23.9378C5.50734 23.2826 5.77203 22.6373 6.0575 22.0041Z" fill="#02ADC8"/>
<path d="M8.02066 18.3138L6.16238 17.1599C5.77191 17.7899 5.39676 18.4418 5.04785 19.0969L6.97832 20.1251C7.30645 19.5093 7.65316 18.9055 8.02066 18.3138Z" fill="#02ADC8"/>
<path d="M10.4499 14.9145L8.75676 13.5298C8.28535 14.1051 7.83254 14.6957 7.39941 15.3017L9.17785 16.5748C9.58473 16.0082 10.0091 15.4537 10.4499 14.9145Z" fill="#02ADC8"/>
<path d="M3.30531 36.236C3.28891 35.8259 3.28125 35.4124 3.28125 35.0001C3.28125 34.7135 3.28453 34.4302 3.29219 34.1469L1.10578 34.0868C1.09703 34.3887 1.09375 34.6949 1.09375 35.0012C1.09375 35.442 1.1025 35.8816 1.11891 36.3191L3.30531 36.236Z" fill="#02ADC8"/>
<path d="M3.67527 29.9874L1.51402 29.6461C1.39809 30.3789 1.30512 31.1238 1.2373 31.8599L3.41496 32.0611C3.47949 31.3622 3.56699 30.671 3.67527 29.9874Z" fill="#02ADC8"/>
<path d="M1.27637 38.5471C1.35402 39.293 1.45574 40.0291 1.58043 40.7586L3.7373 40.389C3.62027 39.7065 3.52512 39.0163 3.45293 38.3196L1.27637 38.5471Z" fill="#02ADC8"/>
<path d="M16.5275 9.21046L15.25 7.4353C14.6463 7.86952 14.0557 8.32343 13.4814 8.79483L14.8716 10.4847C15.4086 10.0428 15.9621 9.61733 16.5275 9.21046Z" fill="#02ADC8"/>
<path d="M23.8675 5.29054L23.0997 3.24194C22.403 3.50335 21.7095 3.78991 21.0391 4.09288L21.9403 6.08569C22.5725 5.80022 23.2156 5.53554 23.8675 5.29054Z" fill="#02ADC8"/>
<path d="M27.8628 4.08631L27.375 1.95459C26.6531 2.11975 25.9258 2.31225 25.2148 2.52662L25.847 4.62006C26.5098 4.421 27.188 4.24162 27.8628 4.08631Z" fill="#02ADC8"/>
<path d="M31.9848 3.4235L31.7814 1.24475C31.0486 1.31256 30.3026 1.40772 29.5654 1.52803L29.9143 3.68819C30.5979 3.57772 31.2881 3.48694 31.9848 3.4235Z" fill="#02ADC8"/>
<path d="M20.0694 7.00774L19.0391 5.07837C18.3829 5.42837 17.7332 5.80352 17.1064 6.19509L18.2647 8.05118C18.8521 7.68368 19.4547 7.33587 20.0694 7.00774Z" fill="#02ADC8"/>
<path d="M34.906 3.28129C35.3216 3.2791 35.746 3.28785 36.1627 3.30207L36.2382 1.11676C35.828 1.10145 35.4146 1.09379 35.0034 1.09379C34.6687 1.0927 34.3373 1.09707 34.0059 1.10692L34.0726 3.29442C34.3482 3.28567 34.6249 3.28129 34.906 3.28129Z" fill="#02ADC8"/>
<path d="M13.3009 11.8673L11.8068 10.2693C11.272 10.7691 10.7415 11.3007 10.2285 11.8498L11.8276 13.3427C12.3055 12.8287 12.8021 12.3321 13.3009 11.8673Z" fill="#02ADC8"/>
</svg>
