<svg width="18" height="18" viewBox="0 0 18 18" fill="none" xmlns="http://www.w3.org/2000/svg">
<path fill-rule="evenodd" clip-rule="evenodd" d="M4.46548 10.4088L0.317917 8.6309C-0.103325 8.44956 -0.106981 7.76652 0.313066 7.58045L17.3348 0.0386264C17.6956 -0.121676 18.068 0.241448 17.9894 0.676688L14.9347 17.5528C14.8627 17.9512 14.456 18.1319 14.1689 17.8922L9.99901 14.4151C9.74574 14.2039 9.40054 14.2153 9.15821 14.4421L6.8463 16.6068C6.57791 16.8588 6.17358 16.7184 6.07086 16.3386L4.46548 10.4088ZM13.9186 3.72838L5.81276 9.46237C5.50208 9.68264 5.3558 10.1135 5.45617 10.517L6.33258 14.0539C6.39481 14.3046 6.71156 14.2789 6.74173 14.0199L6.96961 12.0803C7.01257 11.7151 7.16427 11.3787 7.3994 11.1273L14.0891 3.98515C14.2142 3.85186 14.0643 3.62561 13.9186 3.72838Z" fill="white"/>
<path d="M5.81276 9.46238L13.9186 3.72838C14.0643 3.62561 14.2142 3.85186 14.0891 3.98515L7.3994 11.1273C7.16427 11.3787 7.01257 11.7151 6.96961 12.0803L6.74173 14.0199C6.71156 14.2789 6.39481 14.3046 6.33258 14.0539L5.45617 10.517C5.3558 10.1135 5.50208 9.68264 5.81276 9.46238Z" fill="#02ADC8"/>
</svg>
