<svg width="18" height="18" viewBox="0 0 18 18" fill="none" xmlns="http://www.w3.org/2000/svg">
<path d="M16.8309 3.07547C16.6699 2.63931 16.413 2.24453 16.0794 1.92047C15.7554 1.58684 15.3608 1.33 14.9244 1.169C14.5704 1.03158 14.0387 0.868002 13.0593 0.823325C11.9999 0.775046 11.6822 0.764648 9.00004 0.764648C6.31771 0.764648 6.00003 0.774839 4.94087 0.823119C3.96149 0.868001 3.42949 1.03158 3.07578 1.169C2.63931 1.33 2.24453 1.58684 1.92078 1.92047C1.58705 2.24453 1.33031 2.6391 1.169 3.07547C1.03158 3.42949 0.868002 3.96149 0.823325 4.94087C0.775046 6.00003 0.764648 6.31771 0.764648 9.00004C0.764648 11.6822 0.775046 11.9999 0.823325 13.0593C0.868002 14.0387 1.03158 14.5704 1.169 14.9244C1.33031 15.3608 1.58684 15.7554 1.92047 16.0794C2.24453 16.413 2.6391 16.6699 3.07547 16.8309C3.42949 16.9686 3.96149 17.1322 4.94087 17.1768C6.00003 17.225 6.3174 17.2352 8.99984 17.2352C11.6825 17.2352 12.0002 17.225 13.059 17.1768C14.0384 17.1322 14.5704 16.9686 14.9244 16.8309C15.8004 16.4929 16.4929 15.8004 16.8309 14.9244C16.9683 14.5704 17.1319 14.0387 17.1768 13.0593C17.225 11.9999 17.2352 11.6822 17.2352 9.00004C17.2352 6.31771 17.225 6.00003 17.1768 4.94087C17.1322 3.96149 16.9686 3.42949 16.8309 3.07547ZM9.00004 14.158C6.15104 14.158 3.84156 11.8488 3.84156 8.99984C3.84156 6.15084 6.15104 3.84156 9.00004 3.84156C11.8488 3.84156 14.1583 6.15084 14.1583 8.99984C14.1583 11.8488 11.8488 14.158 9.00004 14.158ZM14.3623 4.84307C13.6965 4.84307 13.1568 4.30335 13.1568 3.63763C13.1568 2.97191 13.6965 2.43219 14.3623 2.43219C15.028 2.43219 15.5677 2.97191 15.5677 3.63763C15.5675 4.30335 15.028 4.84307 14.3623 4.84307Z" fill="white"/>
<path d="M8.99943 12.6028C10.9893 12.6028 12.6024 10.9897 12.6024 8.99985C12.6024 7.01 10.9893 5.39691 8.99943 5.39691C7.00958 5.39691 5.39648 7.01 5.39648 8.99985C5.39648 10.9897 7.00958 12.6028 8.99943 12.6028Z" fill="white"/>
</svg>
