<svg width="18" height="18" viewBox="0 0 18 18" fill="none" xmlns="http://www.w3.org/2000/svg">
<path fill-rule="evenodd" clip-rule="evenodd" d="M1.22041 13.5288L0.00361204 18L4.47301 16.7805C5.847 17.5816 7.40951 18.0026 9.00001 18C13.9707 18 18 13.9707 18 8.99999C18 4.0293 13.9707 0 9.00001 0C4.02931 0 1.2089e-05 4.0293 1.2089e-05 8.99999C-0.00260157 10.5912 0.418636 12.1544 1.22041 13.5288ZM5.75211 4.77712C5.87271 4.76812 5.99421 4.76812 6.11481 4.77352C6.16339 4.77712 6.21198 4.78252 6.26056 4.78792L6.2606 4.78792L6.26061 4.78792C6.40371 4.80412 6.56121 4.89142 6.61431 5.01202C6.88251 5.62042 7.14351 6.23332 7.39551 6.84802C7.45131 6.98482 7.41801 7.16032 7.31181 7.33132C7.23877 7.44695 7.15977 7.5587 7.07511 7.66612C6.97341 7.79662 6.75471 8.03602 6.75471 8.03602C6.75471 8.03602 6.66561 8.14222 6.69981 8.27452C6.71241 8.32492 6.75381 8.39782 6.79161 8.45902L6.84471 8.54452C7.07511 8.92882 7.38471 9.31852 7.76271 9.68572C7.7909 9.71297 7.8189 9.7404 7.84691 9.76783C7.92623 9.84553 8.00561 9.92329 8.08941 9.99712C8.51061 10.3688 8.98761 10.6721 9.50241 10.8971L9.50691 10.8989C9.53434 10.9109 9.55691 10.9208 9.57972 10.9309C9.62053 10.9489 9.66213 10.9673 9.73371 10.9979C9.78951 11.0213 9.84711 11.042 9.90561 11.0573C9.96606 11.0727 10.0297 11.0698 10.0885 11.049C10.1473 11.0282 10.1986 10.9903 10.2359 10.9403C10.8875 10.151 10.9469 10.0997 10.9523 10.0997V10.1015C10.9976 10.0593 11.0514 10.0273 11.11 10.0075C11.1687 9.98782 11.2309 9.9809 11.2925 9.98722C11.3465 9.99082 11.4014 10.0007 11.4518 10.0232C11.9297 10.2419 12.7118 10.583 12.7118 10.583L13.2356 10.8179C13.3238 10.8602 13.4039 10.9601 13.4066 11.0564C13.4102 11.1167 13.4156 11.2139 13.3949 11.3921C13.3661 11.6252 13.2959 11.9051 13.2257 12.0518C13.1776 12.1519 13.1138 12.2437 13.0367 12.3236C12.9459 12.419 12.8465 12.5057 12.7397 12.5828C12.7028 12.6106 12.6653 12.6376 12.6272 12.6638C12.5153 12.7348 12.4003 12.8009 12.2825 12.8618C12.0508 12.9849 11.7949 13.0556 11.5328 13.0688C11.5091 13.0701 11.4853 13.0715 11.4616 13.0728C11.3188 13.081 11.1759 13.0891 11.0324 13.0814C11.0252 13.0814 10.5212 13.0031 10.5212 13.0031C9.24164 12.6666 8.05826 12.036 7.06521 11.1617C6.89393 11.0109 6.73349 10.8505 6.57209 10.6891C6.54182 10.6589 6.51152 10.6286 6.48111 10.5983C5.68011 9.80182 5.07531 8.94232 4.70811 8.13052C4.52016 7.73208 4.41864 7.29838 4.41021 6.85792C4.4065 6.31149 4.58513 5.77942 4.91781 5.34592C4.92799 5.33282 4.93808 5.31963 4.94826 5.30632C5.00383 5.23368 5.0622 5.15737 5.15271 5.07142C5.26701 4.96342 5.33901 4.90582 5.41731 4.86622C5.52142 4.81405 5.63499 4.78344 5.75121 4.77622L5.75211 4.77712Z" fill="white"/>
</svg>
