<svg width="34" height="34" viewBox="0 0 34 34" fill="none" xmlns="http://www.w3.org/2000/svg">
<g clip-path="url(#clip0_518_480)">
<path d="M17 11.6352C13.5609 11.6352 10.4422 13.5168 8.14084 16.5729C7.95305 16.8233 7.95305 17.1731 8.14084 17.4235C10.4422 20.4833 13.5609 22.3649 17 22.3649C20.4391 22.3649 23.5578 20.4833 25.8592 17.4272C26.0469 17.1768 26.0469 16.827 25.8592 16.5766C23.5578 13.5168 20.4391 11.6352 17 11.6352ZM17.2467 20.7779C14.9638 20.9215 13.0786 19.0399 13.2222 16.7533C13.34 14.8681 14.8681 13.34 16.7533 13.2222C19.0362 13.0786 20.9214 14.9601 20.7778 17.2467C20.6563 19.1283 19.1283 20.6564 17.2467 20.7779ZM17.1326 19.0326C15.9027 19.1099 14.8865 18.0973 14.9675 16.8675C15.0301 15.8512 15.8549 15.0301 16.8711 14.9638C18.101 14.8865 19.1172 15.8991 19.0362 17.1289C18.9699 18.1488 18.1451 18.97 17.1326 19.0326Z" fill="#DEBB2A"/>
</g>
<rect x="0.5" y="0.5" width="33" height="33" rx="4.5" stroke="#DEBB2A"/>
<defs>
<clipPath id="clip0_518_480">
<rect width="18" height="18" fill="white" transform="translate(8 8)"/>
</clipPath>
</defs>
</svg>
